<svg width="69" height="69" viewBox="0 0 69 69" fill="none" xmlns="http://www.w3.org/2000/svg">
<path d="M57.5 57.5H11.5C9.97501 57.5 8.51247 56.8942 7.43414 55.8159C6.3558 54.7375 5.75 53.275 5.75 51.75V16.9999C5.81449 15.5186 6.44865 14.1196 7.52007 13.0948C8.5915 12.0699 10.0174 11.4986 11.5 11.5H57.5C59.025 11.5 60.4875 12.1058 61.5659 13.1841C62.6442 14.2625 63.25 15.725 63.25 17.25V51.75C63.25 53.275 62.6442 54.7375 61.5659 55.8159C60.4875 56.8942 59.025 57.5 57.5 57.5ZM11.5 22.6205V51.75H57.5V22.6205L34.5 37.95L11.5 22.6205ZM13.8 17.25L34.5 31.05L55.2 17.25H13.8Z" fill="#E13A34"/>
</svg>
