<svg width="582" height="456" viewBox="0 0 582 456" fill="none" xmlns="http://www.w3.org/2000/svg">
<path d="M85.2774 269.257C106.17 269.257 123.107 252.301 123.107 231.384C123.107 210.467 106.17 193.51 85.2774 193.51C64.3846 193.51 47.4477 210.467 47.4477 231.384C47.4477 252.301 64.3846 269.257 85.2774 269.257Z" fill="#FF6584"/>
<path d="M162.748 445.31H162.71C161.378 445.309 160.101 444.778 159.159 443.835C158.217 442.892 157.687 441.614 157.686 440.28V144.985C157.687 143.651 158.217 142.373 159.159 141.43C160.101 140.487 161.378 139.956 162.71 139.955H410.967C412.3 139.956 413.577 140.487 414.519 141.43C415.46 142.373 415.99 143.651 415.992 144.985V374.593C415.99 375.92 415.466 377.193 414.532 378.135C413.599 379.076 412.332 379.611 411.006 379.623L162.748 445.31Z" fill="#F2F2F2"/>
<path d="M346.243 98.2346H230.981V31.3641C230.982 29.952 231.543 28.5983 232.541 27.5998C233.538 26.6013 234.89 26.0397 236.301 26.0381H340.923C342.334 26.0397 343.686 26.6013 344.683 27.5998C345.681 28.5983 346.242 29.952 346.243 31.3641V98.2346ZM232.163 97.0511H345.061V31.3641C345.06 30.2658 344.624 29.2129 343.848 28.4363C343.072 27.6597 342.02 27.2229 340.923 27.2216H236.301C235.204 27.2229 234.152 27.6597 233.376 28.4363C232.601 29.2129 232.164 30.2658 232.163 31.3641V97.0511Z" fill="white"/>
<path d="M263.786 51.4844H313.438C314.692 51.4844 315.895 51.9832 316.782 52.871C317.668 53.7588 318.167 54.963 318.167 56.2186V127.232H259.058V56.2186C259.058 54.963 259.556 53.7588 260.443 52.871C261.329 51.9832 262.532 51.4844 263.786 51.4844Z" fill="#E6E6E6"/>
<path d="M273.539 27.2216H249.305V2.95887C249.306 2.17441 249.617 1.42233 250.171 0.867625C250.725 0.312923 251.477 0.000897457 252.26 0H270.584C271.367 0.000897457 272.119 0.312923 272.673 0.867625C273.227 1.42233 273.538 2.17441 273.539 2.95887V27.2216ZM250.487 26.0381H272.357V2.95887C272.357 2.48819 272.17 2.03692 271.837 1.7041C271.505 1.37127 271.054 1.18406 270.584 1.18355H252.26C251.79 1.18406 251.339 1.37127 251.007 1.7041C250.674 2.03692 250.487 2.48819 250.487 2.95887V26.0381Z" fill="white"/>
<path d="M472.683 383.967C472.448 383.967 472.218 383.967 471.983 383.961C457.36 383.799 443.299 378.297 432.442 368.488C432.041 368.122 431.642 367.751 431.248 367.376L431.065 367.201V253.786L431.121 253.666C431.512 252.836 431.909 252.017 432.306 251.199C444.601 226.208 458.94 212.447 472.683 212.447C492.502 212.447 507.873 239.665 515.271 255.889C525.559 278.45 532.744 306.406 532.744 323.873C532.739 339.696 526.502 354.88 515.387 366.129C504.271 377.378 489.174 383.786 473.369 383.961C473.149 383.967 472.913 383.967 472.683 383.967ZM432.247 366.694C432.574 367.004 432.905 367.309 433.236 367.611C443.881 377.227 457.667 382.621 472.004 382.778C472.243 382.784 472.47 382.777 472.699 382.784C472.913 382.784 473.133 382.784 473.348 382.778C505.451 382.422 531.562 355.997 531.562 323.873C531.562 306.557 524.42 278.804 514.196 256.381C506.915 240.415 491.841 213.631 472.683 213.631C459.414 213.631 445.452 227.157 433.368 251.718C432.994 252.491 432.618 253.266 432.247 254.051L432.247 366.694Z" fill="white"/>
<path d="M472.68 455.719C472.5 455.719 472.327 455.647 472.199 455.519C472.072 455.391 472 455.218 472 455.038V316.049C472 315.959 472.017 315.87 472.051 315.787C472.085 315.704 472.135 315.628 472.198 315.565C472.261 315.501 472.336 315.45 472.419 315.416C472.502 315.382 472.591 315.364 472.68 315.364C472.77 315.364 472.859 315.382 472.942 315.416C473.024 315.45 473.099 315.501 473.163 315.565C473.226 315.628 473.276 315.704 473.31 315.787C473.344 315.87 473.361 315.959 473.36 316.049V455.038C473.36 455.218 473.289 455.391 473.161 455.519C473.034 455.647 472.861 455.719 472.68 455.719Z" fill="#CCCCCC"/>
<path d="M119.8 455.719C119.62 455.719 119.447 455.647 119.319 455.519C119.192 455.391 119.12 455.218 119.12 455.038V316.049C119.12 315.959 119.137 315.87 119.171 315.787C119.205 315.704 119.255 315.628 119.318 315.565C119.381 315.501 119.456 315.45 119.539 315.416C119.622 315.382 119.711 315.364 119.8 315.364C119.89 315.364 119.979 315.382 120.061 315.416C120.144 315.45 120.219 315.501 120.282 315.565C120.346 315.628 120.396 315.704 120.43 315.787C120.464 315.87 120.481 315.959 120.48 316.049V455.038C120.48 455.218 120.409 455.391 120.281 455.519C120.154 455.647 119.981 455.719 119.8 455.719Z" fill="#CCCCCC"/>
<path d="M472.681 342.017C472.583 342.017 472.487 341.996 472.398 341.955C472.309 341.915 472.23 341.856 472.167 341.782L437.964 302.293C437.846 302.156 437.787 301.978 437.8 301.798C437.813 301.619 437.897 301.451 438.033 301.333C438.169 301.215 438.347 301.156 438.526 301.168C438.706 301.181 438.873 301.264 438.992 301.4L473.194 340.89C473.28 340.988 473.335 341.109 473.354 341.238C473.372 341.368 473.353 341.499 473.299 341.618C473.245 341.737 473.158 341.838 473.048 341.908C472.939 341.979 472.811 342.016 472.681 342.017V342.017Z" fill="#CCCCCC"/>
<path d="M472.68 364.806C472.546 364.806 472.414 364.767 472.303 364.692C472.191 364.617 472.104 364.511 472.052 364.386C472.001 364.262 471.987 364.125 472.013 363.993C472.04 363.861 472.104 363.739 472.2 363.644L491.634 344.187C491.762 344.06 491.934 343.989 492.115 343.989C492.295 343.989 492.467 344.061 492.594 344.188C492.722 344.316 492.793 344.488 492.794 344.669C492.794 344.849 492.723 345.022 492.596 345.15L473.161 364.607C473.098 364.67 473.023 364.721 472.941 364.755C472.858 364.789 472.77 364.807 472.68 364.806Z" fill="#CCCCCC"/>
<path d="M535.6 456H484.763V455.408C484.762 452.065 485.418 448.755 486.695 445.666C487.971 442.577 489.843 439.77 492.204 437.406C494.564 435.042 497.367 433.166 500.452 431.887C503.536 430.607 506.843 429.948 510.182 429.948C513.521 429.948 516.827 430.607 519.912 431.887C522.996 433.166 525.799 435.042 528.159 437.406C530.52 439.77 532.392 442.577 533.669 445.666C534.945 448.755 535.602 452.065 535.6 455.408L535.6 456ZM485.953 454.817H534.411C534.256 448.486 531.636 442.466 527.109 438.043C522.582 433.62 516.507 431.144 510.182 431.144C503.856 431.144 497.781 433.62 493.254 438.043C488.727 442.466 486.107 448.486 485.953 454.817H485.953Z" fill="white"/>
<path d="M510.182 440.965C510.004 440.965 509.833 441.036 509.707 441.162C509.581 441.288 509.511 441.458 509.511 441.637V448.773L502.567 442.806C502.5 442.749 502.422 442.705 502.339 442.677C502.255 442.649 502.166 442.638 502.078 442.645C501.99 442.652 501.904 442.676 501.826 442.715C501.747 442.755 501.677 442.81 501.619 442.877C501.562 442.944 501.518 443.022 501.491 443.106C501.463 443.19 501.452 443.279 501.459 443.367C501.466 443.455 501.49 443.541 501.53 443.62C501.57 443.698 501.625 443.768 501.692 443.826L509.511 450.544V454.736C509.51 454.825 509.527 454.912 509.561 454.994C509.595 455.076 509.644 455.15 509.706 455.213C509.769 455.275 509.843 455.325 509.924 455.359C510.006 455.393 510.093 455.41 510.182 455.41C510.27 455.41 510.357 455.393 510.439 455.359C510.52 455.325 510.594 455.275 510.657 455.213C510.719 455.15 510.769 455.076 510.802 454.994C510.836 454.912 510.853 454.825 510.853 454.736V441.637C510.853 441.458 510.782 441.288 510.656 441.162C510.53 441.036 510.36 440.965 510.182 440.965Z" fill="white"/>
<path d="M109.425 456H58.588V455.408C58.5864 452.065 59.2427 448.755 60.5194 445.666C61.7961 442.577 63.6681 439.77 66.0286 437.406C68.389 435.042 71.1917 433.166 74.2764 431.887C77.3611 430.607 80.6674 429.948 84.0064 429.948C87.3454 429.948 90.6517 430.607 93.7364 431.887C96.8211 433.166 99.6237 435.042 101.984 437.406C104.345 439.77 106.217 442.577 107.493 445.666C108.77 448.755 109.426 452.065 109.425 455.408L109.425 456ZM59.7773 454.817H108.235C108.081 448.486 105.461 442.466 100.934 438.043C96.4068 433.62 90.3319 431.144 84.0064 431.144C77.6809 431.144 71.606 433.62 67.079 438.043C62.552 442.466 59.9316 448.486 59.7773 454.817H59.7773Z" fill="white"/>
<path d="M84.0063 440.965C83.8284 440.965 83.6577 441.036 83.5319 441.162C83.406 441.288 83.3353 441.458 83.3353 441.637V448.773L76.3915 442.806C76.3246 442.749 76.2471 442.705 76.1633 442.677C76.0794 442.649 75.991 442.638 75.903 442.645C75.815 442.652 75.7291 442.676 75.6503 442.715C75.5716 442.755 75.5014 442.81 75.4439 442.877C75.3864 442.944 75.3427 443.022 75.3153 443.106C75.2879 443.19 75.2772 443.279 75.284 443.367C75.2909 443.455 75.315 443.541 75.355 443.62C75.395 443.698 75.4501 443.768 75.5172 443.826L83.3353 450.544V454.736C83.335 454.825 83.3522 454.912 83.3858 454.994C83.4194 455.076 83.4688 455.15 83.5311 455.213C83.5935 455.275 83.6675 455.325 83.7491 455.359C83.8306 455.393 83.9181 455.41 84.0063 455.41C84.0946 455.41 84.182 455.393 84.2636 455.359C84.3451 455.325 84.4192 455.275 84.4815 455.213C84.5439 455.15 84.5933 455.076 84.6269 454.994C84.6605 454.912 84.6776 454.825 84.6774 454.736V441.637C84.6774 441.458 84.6067 441.288 84.4808 441.162C84.355 441.036 84.1843 440.965 84.0063 440.965Z" fill="white"/>
<path d="M120.394 383.967C120.159 383.967 119.929 383.967 119.694 383.961C103.891 383.783 88.7959 377.374 77.6824 366.125C66.5688 354.876 60.3331 339.694 60.3275 323.873C60.3275 306.405 67.5129 278.45 77.801 255.889C85.1998 239.665 100.572 212.447 120.394 212.447C128.559 212.447 136.78 217.106 144.831 226.295C145.23 226.748 145.63 227.215 146.024 227.693L146.16 227.857V378.16L145.826 378.322C145.428 378.515 145.025 378.696 144.621 378.871C137.203 382.157 129.192 383.89 121.08 383.961C120.859 383.967 120.624 383.967 120.394 383.967ZM120.394 213.631C101.233 213.631 86.1573 240.415 78.8764 256.381C68.6512 278.803 61.5097 306.557 61.5097 323.873C61.5097 355.991 87.6205 382.416 119.715 382.778C119.954 382.784 120.177 382.786 120.41 382.784C120.624 382.784 120.844 382.784 121.059 382.778C129.014 382.708 136.872 381.01 144.147 377.786C144.426 377.665 144.703 377.543 144.977 377.415V228.284C144.635 227.872 144.289 227.47 143.943 227.077C136.126 218.154 128.203 213.631 120.394 213.631Z" fill="white"/>
<path d="M120.392 342.017C120.294 342.017 120.198 341.996 120.109 341.955C120.02 341.915 119.941 341.856 119.877 341.782L85.6748 302.293C85.5571 302.156 85.4982 301.978 85.5112 301.798C85.5242 301.619 85.6079 301.451 85.744 301.333C85.8801 301.215 86.0574 301.156 86.2372 301.168C86.4169 301.181 86.5842 301.264 86.7026 301.4L120.905 340.89C120.991 340.988 121.046 341.109 121.064 341.238C121.083 341.368 121.064 341.499 121.01 341.618C120.956 341.737 120.869 341.838 120.759 341.908C120.65 341.979 120.522 342.016 120.392 342.017V342.017Z" fill="#CCCCCC"/>
<path d="M120.391 364.806C120.257 364.806 120.125 364.767 120.013 364.692C119.902 364.617 119.815 364.511 119.763 364.386C119.712 364.262 119.698 364.125 119.724 363.993C119.751 363.861 119.815 363.739 119.91 363.644L139.345 344.187C139.473 344.06 139.645 343.989 139.825 343.989C140.005 343.989 140.178 344.061 140.305 344.188C140.433 344.316 140.504 344.488 140.504 344.669C140.505 344.849 140.434 345.022 140.307 345.15L120.872 364.607C120.809 364.67 120.734 364.721 120.652 364.755C120.569 364.789 120.481 364.807 120.391 364.806Z" fill="#CCCCCC"/>
<path d="M173.799 102.969L174.236 103.833C174.43 104.206 174.532 104.62 174.532 105.04V128.415H195.22V105.04C195.22 104.62 195.322 104.206 195.516 103.833L195.953 102.969H173.799ZM194.038 105.04V127.232H175.714V105.04C175.714 104.741 175.679 104.443 175.608 104.153H194.144C194.073 104.443 194.037 104.741 194.038 105.04ZM199.807 102.969L200.244 103.833C200.438 104.206 200.54 104.62 200.54 105.04V128.415H221.228V105.04C221.228 104.62 221.33 104.206 221.523 103.833L221.961 102.969H199.807ZM220.046 105.04V127.232H201.722V105.04C201.722 104.741 201.687 104.443 201.615 104.153H220.152C220.081 104.443 220.045 104.741 220.046 105.04ZM225.815 102.969L226.252 103.833C226.446 104.206 226.547 104.62 226.548 105.04V128.415H247.236V105.04C247.236 104.62 247.337 104.206 247.531 103.833L247.969 102.969H225.815ZM246.054 105.04V127.232H227.73V105.04C227.73 104.741 227.694 104.443 227.623 104.153H246.16C246.089 104.443 246.053 104.741 246.054 105.04ZM251.823 102.969L252.26 103.833C252.454 104.206 252.555 104.62 252.556 105.04V128.415H273.244V105.04C273.244 104.62 273.345 104.206 273.539 103.833L273.977 102.969H251.823ZM272.062 105.04V127.232H253.738V105.04C253.738 104.741 253.702 104.443 253.631 104.153H272.168C272.097 104.443 272.061 104.741 272.062 105.04ZM277.83 102.969L278.268 103.833C278.462 104.206 278.563 104.62 278.564 105.04V128.415H299.252V105.04C299.252 104.62 299.353 104.206 299.547 103.833L299.985 102.969H277.83ZM298.069 105.04V127.232H279.746V105.04C279.746 104.741 279.71 104.443 279.639 104.153H298.176C298.105 104.443 298.069 104.741 298.069 105.04ZM303.838 102.969L304.276 103.833C304.47 104.206 304.571 104.62 304.571 105.04V128.415H325.26V105.04C325.26 104.62 325.361 104.206 325.555 103.833L325.993 102.969H303.838ZM324.077 105.04V127.232H305.754V105.04C305.754 104.741 305.718 104.443 305.647 104.153H324.184C324.113 104.443 324.077 104.741 324.077 105.04ZM329.846 102.969L330.284 103.833C330.478 104.206 330.579 104.62 330.579 105.04V128.415H351.268V105.04C351.268 104.62 351.369 104.206 351.563 103.833L352.001 102.969H329.846ZM350.085 105.04V127.232H331.762V105.04C331.762 104.741 331.726 104.443 331.655 104.153H350.192C350.121 104.443 350.085 104.741 350.085 105.04ZM355.854 102.969L356.292 103.833C356.486 104.206 356.587 104.62 356.587 105.04V128.415H377.275V105.04C377.276 104.62 377.377 104.206 377.571 103.833L378.008 102.969H355.854ZM376.093 105.04V127.232H357.769V105.04C357.77 104.741 357.734 104.443 357.663 104.153H376.2C376.129 104.443 376.093 104.741 376.093 105.04ZM381.862 102.969L382.3 103.833C382.494 104.206 382.595 104.62 382.595 105.04V128.415H403.283V105.04C403.284 104.62 403.385 104.206 403.579 103.833L404.016 102.969H381.862ZM402.101 105.04V127.232H383.777V105.04C383.778 104.741 383.742 104.443 383.671 104.153H402.208C402.137 104.443 402.101 104.741 402.101 105.04ZM381.862 102.969L382.3 103.833C382.494 104.206 382.595 104.62 382.595 105.04V128.415H403.283V105.04C403.284 104.62 403.385 104.206 403.579 103.833L404.016 102.969H381.862ZM402.101 105.04V127.232H383.777V105.04C383.778 104.741 383.742 104.443 383.671 104.153H402.208C402.137 104.443 402.101 104.741 402.101 105.04ZM355.854 102.969L356.292 103.833C356.486 104.206 356.587 104.62 356.587 105.04V128.415H377.275V105.04C377.276 104.62 377.377 104.206 377.571 103.833L378.008 102.969H355.854ZM376.093 105.04V127.232H357.769V105.04C357.77 104.741 357.734 104.443 357.663 104.153H376.2C376.129 104.443 376.093 104.741 376.093 105.04ZM329.846 102.969L330.284 103.833C330.478 104.206 330.579 104.62 330.579 105.04V128.415H351.268V105.04C351.268 104.62 351.369 104.206 351.563 103.833L352.001 102.969H329.846ZM350.085 105.04V127.232H331.762V105.04C331.762 104.741 331.726 104.443 331.655 104.153H350.192C350.121 104.443 350.085 104.741 350.085 105.04ZM303.838 102.969L304.276 103.833C304.47 104.206 304.571 104.62 304.571 105.04V128.415H325.26V105.04C325.26 104.62 325.361 104.206 325.555 103.833L325.993 102.969H303.838ZM324.077 105.04V127.232H305.754V105.04C305.754 104.741 305.718 104.443 305.647 104.153H324.184C324.113 104.443 324.077 104.741 324.077 105.04ZM277.83 102.969L278.268 103.833C278.462 104.206 278.563 104.62 278.564 105.04V128.415H299.252V105.04C299.252 104.62 299.353 104.206 299.547 103.833L299.985 102.969H277.83ZM298.069 105.04V127.232H279.746V105.04C279.746 104.741 279.71 104.443 279.639 104.153H298.176C298.105 104.443 298.069 104.741 298.069 105.04ZM251.823 102.969L252.26 103.833C252.454 104.206 252.555 104.62 252.556 105.04V128.415H273.244V105.04C273.244 104.62 273.345 104.206 273.539 103.833L273.977 102.969H251.823ZM272.062 105.04V127.232H253.738V105.04C253.738 104.741 253.702 104.443 253.631 104.153H272.168C272.097 104.443 272.061 104.741 272.062 105.04ZM225.815 102.969L226.252 103.833C226.446 104.206 226.547 104.62 226.548 105.04V128.415H247.236V105.04C247.236 104.62 247.337 104.206 247.531 103.833L247.969 102.969H225.815ZM246.054 105.04V127.232H227.73V105.04C227.73 104.741 227.694 104.443 227.623 104.153H246.16C246.089 104.443 246.053 104.741 246.054 105.04ZM199.807 102.969L200.244 103.833C200.438 104.206 200.54 104.62 200.54 105.04V128.415H221.228V105.04C221.228 104.62 221.33 104.206 221.523 103.833L221.961 102.969H199.807ZM220.046 105.04V127.232H201.722V105.04C201.722 104.741 201.687 104.443 201.615 104.153H220.152C220.081 104.443 220.045 104.741 220.046 105.04ZM173.799 102.969L174.236 103.833C174.43 104.206 174.532 104.62 174.532 105.04V128.415H195.22V105.04C195.22 104.62 195.322 104.206 195.516 103.833L195.953 102.969H173.799ZM194.038 105.04V127.232H175.714V105.04C175.714 104.741 175.679 104.443 175.608 104.153H194.144C194.073 104.443 194.037 104.741 194.038 105.04ZM381.862 102.969L382.3 103.833C382.494 104.206 382.595 104.62 382.595 105.04V128.415H403.283V105.04C403.284 104.62 403.385 104.206 403.579 103.833L404.016 102.969H381.862ZM402.101 105.04V127.232H383.777V105.04C383.778 104.741 383.742 104.443 383.671 104.153H402.208C402.137 104.443 402.101 104.741 402.101 105.04ZM355.854 102.969L356.292 103.833C356.486 104.206 356.587 104.62 356.587 105.04V128.415H377.275V105.04C377.276 104.62 377.377 104.206 377.571 103.833L378.008 102.969H355.854ZM376.093 105.04V127.232H357.769V105.04C357.77 104.741 357.734 104.443 357.663 104.153H376.2C376.129 104.443 376.093 104.741 376.093 105.04ZM329.846 102.969L330.284 103.833C330.478 104.206 330.579 104.62 330.579 105.04V128.415H351.268V105.04C351.268 104.62 351.369 104.206 351.563 103.833L352.001 102.969H329.846ZM350.085 105.04V127.232H331.762V105.04C331.762 104.741 331.726 104.443 331.655 104.153H350.192C350.121 104.443 350.085 104.741 350.085 105.04ZM303.838 102.969L304.276 103.833C304.47 104.206 304.571 104.62 304.571 105.04V128.415H325.26V105.04C325.26 104.62 325.361 104.206 325.555 103.833L325.993 102.969H303.838ZM324.077 105.04V127.232H305.754V105.04C305.754 104.741 305.718 104.443 305.647 104.153H324.184C324.113 104.443 324.077 104.741 324.077 105.04ZM277.83 102.969L278.268 103.833C278.462 104.206 278.563 104.62 278.564 105.04V128.415H299.252V105.04C299.252 104.62 299.353 104.206 299.547 103.833L299.985 102.969H277.83ZM298.069 105.04V127.232H279.746V105.04C279.746 104.741 279.71 104.443 279.639 104.153H298.176C298.105 104.443 298.069 104.741 298.069 105.04ZM251.823 102.969L252.26 103.833C252.454 104.206 252.555 104.62 252.556 105.04V128.415H273.244V105.04C273.244 104.62 273.345 104.206 273.539 103.833L273.977 102.969H251.823ZM272.062 105.04V127.232H253.738V105.04C253.738 104.741 253.702 104.443 253.631 104.153H272.168C272.097 104.443 272.061 104.741 272.062 105.04ZM225.815 102.969L226.252 103.833C226.446 104.206 226.547 104.62 226.548 105.04V128.415H247.236V105.04C247.236 104.62 247.337 104.206 247.531 103.833L247.969 102.969H225.815ZM246.054 105.04V127.232H227.73V105.04C227.73 104.741 227.694 104.443 227.623 104.153H246.16C246.089 104.443 246.053 104.741 246.054 105.04ZM199.807 102.969L200.244 103.833C200.438 104.206 200.54 104.62 200.54 105.04V128.415H221.228V105.04C221.228 104.62 221.33 104.206 221.523 103.833L221.961 102.969H199.807ZM220.046 105.04V127.232H201.722V105.04C201.722 104.741 201.687 104.443 201.615 104.153H220.152C220.081 104.443 220.045 104.741 220.046 105.04ZM173.799 102.969L174.236 103.833C174.43 104.206 174.532 104.62 174.532 105.04V128.415H195.22V105.04C195.22 104.62 195.322 104.206 195.516 103.833L195.953 102.969H173.799ZM194.038 105.04V127.232H175.714V105.04C175.714 104.741 175.679 104.443 175.608 104.153H194.144C194.073 104.443 194.037 104.741 194.038 105.04ZM381.862 102.969L382.3 103.833C382.494 104.206 382.595 104.62 382.595 105.04V128.415H403.283V105.04C403.284 104.62 403.385 104.206 403.579 103.833L404.016 102.969H381.862ZM402.101 105.04V127.232H383.777V105.04C383.778 104.741 383.742 104.443 383.671 104.153H402.208C402.137 104.443 402.101 104.741 402.101 105.04ZM355.854 102.969L356.292 103.833C356.486 104.206 356.587 104.62 356.587 105.04V128.415H377.275V105.04C377.276 104.62 377.377 104.206 377.571 103.833L378.008 102.969H355.854ZM376.093 105.04V127.232H357.769V105.04C357.77 104.741 357.734 104.443 357.663 104.153H376.2C376.129 104.443 376.093 104.741 376.093 105.04ZM329.846 102.969L330.284 103.833C330.478 104.206 330.579 104.62 330.579 105.04V128.415H351.268V105.04C351.268 104.62 351.369 104.206 351.563 103.833L352.001 102.969H329.846ZM350.085 105.04V127.232H331.762V105.04C331.762 104.741 331.726 104.443 331.655 104.153H350.192C350.121 104.443 350.085 104.741 350.085 105.04ZM303.838 102.969L304.276 103.833C304.47 104.206 304.571 104.62 304.571 105.04V128.415H325.26V105.04C325.26 104.62 325.361 104.206 325.555 103.833L325.993 102.969H303.838ZM324.077 105.04V127.232H305.754V105.04C305.754 104.741 305.718 104.443 305.647 104.153H324.184C324.113 104.443 324.077 104.741 324.077 105.04ZM277.83 102.969L278.268 103.833C278.462 104.206 278.563 104.62 278.564 105.04V128.415H299.252V105.04C299.252 104.62 299.353 104.206 299.547 103.833L299.985 102.969H277.83ZM298.069 105.04V127.232H279.746V105.04C279.746 104.741 279.71 104.443 279.639 104.153H298.176C298.105 104.443 298.069 104.741 298.069 105.04ZM251.823 102.969L252.26 103.833C252.454 104.206 252.555 104.62 252.556 105.04V128.415H273.244V105.04C273.244 104.62 273.345 104.206 273.539 103.833L273.977 102.969H251.823ZM272.062 105.04V127.232H253.738V105.04C253.738 104.741 253.702 104.443 253.631 104.153H272.168C272.097 104.443 272.061 104.741 272.062 105.04ZM225.815 102.969L226.252 103.833C226.446 104.206 226.547 104.62 226.548 105.04V128.415H247.236V105.04C247.236 104.62 247.337 104.206 247.531 103.833L247.969 102.969H225.815ZM246.054 105.04V127.232H227.73V105.04C227.73 104.741 227.694 104.443 227.623 104.153H246.16C246.089 104.443 246.053 104.741 246.054 105.04ZM199.807 102.969L200.244 103.833C200.438 104.206 200.54 104.62 200.54 105.04V128.415H221.228V105.04C221.228 104.62 221.33 104.206 221.523 103.833L221.961 102.969H199.807ZM220.046 105.04V127.232H201.722V105.04C201.722 104.741 201.687 104.443 201.615 104.153H220.152C220.081 104.443 220.045 104.741 220.046 105.04ZM173.799 102.969L174.236 103.833C174.43 104.206 174.532 104.62 174.532 105.04V128.415H195.22V105.04C195.22 104.62 195.322 104.206 195.516 103.833L195.953 102.969H173.799ZM194.038 105.04V127.232H175.714V105.04C175.714 104.741 175.679 104.443 175.608 104.153H194.144C194.073 104.443 194.037 104.741 194.038 105.04ZM381.862 102.969L382.3 103.833C382.494 104.206 382.595 104.62 382.595 105.04V128.415H403.283V105.04C403.284 104.62 403.385 104.206 403.579 103.833L404.016 102.969H381.862ZM402.101 105.04V127.232H383.777V105.04C383.778 104.741 383.742 104.443 383.671 104.153H402.208C402.137 104.443 402.101 104.741 402.101 105.04ZM355.854 102.969L356.292 103.833C356.486 104.206 356.587 104.62 356.587 105.04V128.415H377.275V105.04C377.276 104.62 377.377 104.206 377.571 103.833L378.008 102.969H355.854ZM376.093 105.04V127.232H357.769V105.04C357.77 104.741 357.734 104.443 357.663 104.153H376.2C376.129 104.443 376.093 104.741 376.093 105.04ZM329.846 102.969L330.284 103.833C330.478 104.206 330.579 104.62 330.579 105.04V128.415H351.268V105.04C351.268 104.62 351.369 104.206 351.563 103.833L352.001 102.969H329.846ZM350.085 105.04V127.232H331.762V105.04C331.762 104.741 331.726 104.443 331.655 104.153H350.192C350.121 104.443 350.085 104.741 350.085 105.04ZM303.838 102.969L304.276 103.833C304.47 104.206 304.571 104.62 304.571 105.04V128.415H325.26V105.04C325.26 104.62 325.361 104.206 325.555 103.833L325.993 102.969H303.838ZM324.077 105.04V127.232H305.754V105.04C305.754 104.741 305.718 104.443 305.647 104.153H324.184C324.113 104.443 324.077 104.741 324.077 105.04ZM277.83 102.969L278.268 103.833C278.462 104.206 278.563 104.62 278.564 105.04V128.415H299.252V105.04C299.252 104.62 299.353 104.206 299.547 103.833L299.985 102.969H277.83ZM298.069 105.04V127.232H279.746V105.04C279.746 104.741 279.71 104.443 279.639 104.153H298.176C298.105 104.443 298.069 104.741 298.069 105.04ZM251.823 102.969L252.26 103.833C252.454 104.206 252.555 104.62 252.556 105.04V128.415H273.244V105.04C273.244 104.62 273.345 104.206 273.539 103.833L273.977 102.969H251.823ZM272.062 105.04V127.232H253.738V105.04C253.738 104.741 253.702 104.443 253.631 104.153H272.168C272.097 104.443 272.061 104.741 272.062 105.04ZM225.815 102.969L226.252 103.833C226.446 104.206 226.547 104.62 226.548 105.04V128.415H247.236V105.04C247.236 104.62 247.337 104.206 247.531 103.833L247.969 102.969H225.815ZM246.054 105.04V127.232H227.73V105.04C227.73 104.741 227.694 104.443 227.623 104.153H246.16C246.089 104.443 246.053 104.741 246.054 105.04ZM199.807 102.969L200.244 103.833C200.438 104.206 200.54 104.62 200.54 105.04V128.415H221.228V105.04C221.228 104.62 221.33 104.206 221.523 103.833L221.961 102.969H199.807ZM220.046 105.04V127.232H201.722V105.04C201.722 104.741 201.687 104.443 201.615 104.153H220.152C220.081 104.443 220.045 104.741 220.046 105.04ZM173.799 102.969L174.236 103.833C174.43 104.206 174.532 104.62 174.532 105.04V128.415H195.22V105.04C195.22 104.62 195.322 104.206 195.516 103.833L195.953 102.969H173.799ZM194.038 105.04V127.232H175.714V105.04C175.714 104.741 175.679 104.443 175.608 104.153H194.144C194.073 104.443 194.037 104.741 194.038 105.04ZM381.862 102.969L382.3 103.833C382.494 104.206 382.595 104.62 382.595 105.04V128.415H403.283V105.04C403.284 104.62 403.385 104.206 403.579 103.833L404.016 102.969H381.862ZM402.101 105.04V127.232H383.777V105.04C383.778 104.741 383.742 104.443 383.671 104.153H402.208C402.137 104.443 402.101 104.741 402.101 105.04ZM356.292 103.833C356.486 104.206 356.587 104.62 356.587 105.04V128.415H377.275V105.04C377.276 104.62 377.377 104.206 377.571 103.833L378.008 102.969H355.854L356.292 103.833ZM376.2 104.153C376.129 104.443 376.093 104.741 376.093 105.04V127.232H357.769V105.04C357.77 104.741 357.734 104.443 357.663 104.153H376.2ZM330.284 103.833C330.478 104.206 330.579 104.62 330.579 105.04V128.415H351.268V105.04C351.268 104.62 351.369 104.206 351.563 103.833L352.001 102.969H329.846L330.284 103.833ZM350.192 104.153C350.121 104.443 350.085 104.741 350.085 105.04V127.232H331.762V105.04C331.762 104.741 331.726 104.443 331.655 104.153H350.192ZM304.276 103.833C304.47 104.206 304.571 104.62 304.571 105.04V128.415H325.26V105.04C325.26 104.62 325.361 104.206 325.555 103.833L325.993 102.969H303.838L304.276 103.833ZM324.184 104.153C324.113 104.443 324.077 104.741 324.077 105.04V127.232H305.754V105.04C305.754 104.741 305.718 104.443 305.647 104.153H324.184ZM278.268 103.833C278.462 104.206 278.563 104.62 278.564 105.04V128.415H299.252V105.04C299.252 104.62 299.353 104.206 299.547 103.833L299.985 102.969H277.83L278.268 103.833ZM298.176 104.153C298.105 104.443 298.069 104.741 298.069 105.04V127.232H279.746V105.04C279.746 104.741 279.71 104.443 279.639 104.153H298.176ZM252.26 103.833C252.454 104.206 252.555 104.62 252.556 105.04V128.415H273.244V105.04C273.244 104.62 273.345 104.206 273.539 103.833L273.977 102.969H251.823L252.26 103.833ZM272.168 104.153C272.097 104.443 272.061 104.741 272.062 105.04V127.232H253.738V105.04C253.738 104.741 253.702 104.443 253.631 104.153H272.168ZM226.252 103.833C226.446 104.206 226.547 104.62 226.548 105.04V128.415H247.236V105.04C247.236 104.62 247.337 104.206 247.531 103.833L247.969 102.969H225.815L226.252 103.833ZM246.16 104.153C246.089 104.443 246.053 104.741 246.054 105.04V127.232H227.73V105.04C227.73 104.741 227.694 104.443 227.623 104.153H246.16ZM200.244 103.833C200.438 104.206 200.54 104.62 200.54 105.04V128.415H221.228V105.04C221.228 104.62 221.33 104.206 221.523 103.833L221.961 102.969H199.807L200.244 103.833ZM220.152 104.153C220.081 104.443 220.045 104.741 220.046 105.04V127.232H201.722V105.04C201.722 104.741 201.687 104.443 201.615 104.153H220.152ZM174.236 103.833C174.43 104.206 174.532 104.62 174.532 105.04V128.415H195.22V105.04C195.22 104.62 195.322 104.206 195.516 103.833L195.953 102.969H173.799L174.236 103.833ZM194.144 104.153C194.073 104.443 194.037 104.741 194.038 105.04V127.232H175.714V105.04C175.714 104.741 175.679 104.443 175.608 104.153H194.144ZM382.3 103.833C382.494 104.206 382.595 104.62 382.595 105.04V128.415H403.283V105.04C403.284 104.62 403.385 104.206 403.579 103.833L404.016 102.969H381.862L382.3 103.833ZM402.208 104.153C402.137 104.443 402.101 104.741 402.101 105.04V127.232H383.777V105.04C383.778 104.741 383.742 104.443 383.671 104.153H402.208ZM356.292 103.833C356.486 104.206 356.587 104.62 356.587 105.04V128.415H377.275V105.04C377.276 104.62 377.377 104.206 377.571 103.833L378.008 102.969H355.854L356.292 103.833ZM376.2 104.153C376.129 104.443 376.093 104.741 376.093 105.04V127.232H357.769V105.04C357.77 104.741 357.734 104.443 357.663 104.153H376.2ZM330.284 103.833C330.478 104.206 330.579 104.62 330.579 105.04V128.415H351.268V105.04C351.268 104.62 351.369 104.206 351.563 103.833L352.001 102.969H329.846L330.284 103.833ZM350.192 104.153C350.121 104.443 350.085 104.741 350.085 105.04V127.232H331.762V105.04C331.762 104.741 331.726 104.443 331.655 104.153H350.192ZM304.276 103.833C304.47 104.206 304.571 104.62 304.571 105.04V128.415H325.26V105.04C325.26 104.62 325.361 104.206 325.555 103.833L325.993 102.969H303.838L304.276 103.833ZM324.184 104.153C324.113 104.443 324.077 104.741 324.077 105.04V127.232H305.754V105.04C305.754 104.741 305.718 104.443 305.647 104.153H324.184ZM278.268 103.833C278.462 104.206 278.563 104.62 278.564 105.04V128.415H299.252V105.04C299.252 104.62 299.353 104.206 299.547 103.833L299.985 102.969H277.83L278.268 103.833ZM298.176 104.153C298.105 104.443 298.069 104.741 298.069 105.04V127.232H279.746V105.04C279.746 104.741 279.71 104.443 279.639 104.153H298.176ZM252.26 103.833C252.454 104.206 252.555 104.62 252.556 105.04V128.415H273.244V105.04C273.244 104.62 273.345 104.206 273.539 103.833L273.977 102.969H251.823L252.26 103.833ZM272.168 104.153C272.097 104.443 272.061 104.741 272.062 105.04V127.232H253.738V105.04C253.738 104.741 253.702 104.443 253.631 104.153H272.168ZM226.252 103.833C226.446 104.206 226.547 104.62 226.548 105.04V128.415H247.236V105.04C247.236 104.62 247.337 104.206 247.531 103.833L247.969 102.969H225.815L226.252 103.833ZM246.16 104.153C246.089 104.443 246.053 104.741 246.054 105.04V127.232H227.73V105.04C227.73 104.741 227.694 104.443 227.623 104.153H246.16ZM200.244 103.833C200.438 104.206 200.54 104.62 200.54 105.04V128.415H221.228V105.04C221.228 104.62 221.33 104.206 221.523 103.833L221.961 102.969H199.807L200.244 103.833ZM220.152 104.153C220.081 104.443 220.045 104.741 220.046 105.04V127.232H201.722V105.04C201.722 104.741 201.687 104.443 201.615 104.153H220.152ZM174.236 103.833C174.43 104.206 174.532 104.62 174.532 105.04V128.415H195.22V105.04C195.22 104.62 195.322 104.206 195.516 103.833L195.953 102.969H173.799L174.236 103.833ZM194.144 104.153C194.073 104.443 194.037 104.741 194.038 105.04V127.232H175.714V105.04C175.714 104.741 175.679 104.443 175.608 104.153H194.144ZM426.927 131.966H419.881C419.493 130.605 418.672 129.407 417.544 128.553C416.416 127.699 415.042 127.235 413.627 127.232H409.785V105.04C409.787 104.564 409.697 104.092 409.519 103.65C410.189 103.255 410.71 102.65 411.003 101.929C411.295 101.208 411.343 100.411 411.138 99.6604C410.932 98.9098 410.486 98.2477 409.868 97.7761C409.25 97.3046 408.494 97.0499 407.716 97.0513H170.099C169.321 97.0499 168.565 97.3046 167.947 97.7761C167.329 98.2477 166.883 98.9098 166.678 99.6604C166.473 100.411 166.52 101.208 166.812 101.929C167.105 102.65 167.626 103.255 168.296 103.65C168.119 104.092 168.028 104.564 168.03 105.04V127.232H164.188C162.774 127.235 161.399 127.699 160.271 128.553C159.143 129.407 158.323 130.605 157.934 131.966H150.297C148.887 131.968 147.535 132.53 146.538 133.528C145.541 134.527 144.98 135.88 144.977 137.292V449.749C144.98 451.161 145.542 452.513 146.539 453.512C147.536 454.51 148.887 455.072 150.297 455.075H426.927C428.337 455.073 429.689 454.511 430.686 453.513C431.684 452.514 432.245 451.161 432.247 449.749V137.292C432.245 135.88 431.683 134.527 430.686 133.528C429.689 132.53 428.337 131.968 426.927 131.966ZM431.065 449.749C431.064 450.595 430.804 451.42 430.321 452.114C429.839 452.808 429.155 453.337 428.363 453.631C427.905 453.806 427.418 453.894 426.927 453.891H150.297C149.806 453.894 149.319 453.806 148.861 453.631C148.069 453.337 147.386 452.808 146.903 452.114C146.42 451.42 146.161 450.595 146.16 449.749V137.292C146.161 136.194 146.597 135.141 147.373 134.364C148.149 133.588 149.2 133.151 150.297 133.15H158.88L158.975 132.676C159.223 131.475 159.877 130.396 160.826 129.62C161.775 128.844 162.962 128.419 164.188 128.415H169.212V105.04C169.212 104.559 169.343 104.086 169.59 103.673L169.957 103.064L169.289 102.815C168.767 102.626 168.328 102.258 168.051 101.777C167.773 101.295 167.674 100.731 167.77 100.184C167.867 99.6368 168.154 99.1412 168.58 98.7846C169.006 98.428 169.544 98.2333 170.099 98.2348H407.716C408.272 98.2333 408.81 98.428 409.236 98.7846C409.661 99.1412 409.948 99.6368 410.045 100.184C410.142 100.731 410.042 101.295 409.765 101.777C409.487 102.258 409.048 102.626 408.526 102.815L407.858 103.064L408.225 103.673C408.472 104.086 408.603 104.559 408.603 105.04V128.415H413.627C414.853 128.419 416.04 128.844 416.989 129.62C417.938 130.396 418.592 131.475 418.841 132.676L418.935 133.15H426.927C428.024 133.151 429.076 133.588 429.851 134.364C430.627 135.141 431.063 136.194 431.064 137.292L431.065 449.749ZM173.799 102.969L174.236 103.833C174.43 104.206 174.532 104.62 174.532 105.04V128.415H195.22V105.04C195.22 104.62 195.322 104.206 195.516 103.833L195.953 102.969H173.799ZM194.038 105.04V127.232H175.714V105.04C175.714 104.741 175.679 104.443 175.608 104.153H194.144C194.073 104.443 194.037 104.741 194.038 105.04ZM199.807 102.969L200.244 103.833C200.438 104.206 200.54 104.62 200.54 105.04V128.415H221.228V105.04C221.228 104.62 221.33 104.206 221.523 103.833L221.961 102.969H199.807ZM220.046 105.04V127.232H201.722V105.04C201.722 104.741 201.687 104.443 201.615 104.153H220.152C220.081 104.443 220.045 104.741 220.046 105.04ZM225.815 102.969L226.252 103.833C226.446 104.206 226.547 104.62 226.548 105.04V128.415H247.236V105.04C247.236 104.62 247.337 104.206 247.531 103.833L247.969 102.969H225.815ZM246.054 105.04V127.232H227.73V105.04C227.73 104.741 227.694 104.443 227.623 104.153H246.16C246.089 104.443 246.053 104.741 246.054 105.04ZM251.823 102.969L252.26 103.833C252.454 104.206 252.555 104.62 252.556 105.04V128.415H273.244V105.04C273.244 104.62 273.345 104.206 273.539 103.833L273.977 102.969H251.823ZM272.062 105.04V127.232H253.738V105.04C253.738 104.741 253.702 104.443 253.631 104.153H272.168C272.097 104.443 272.061 104.741 272.062 105.04ZM277.83 102.969L278.268 103.833C278.462 104.206 278.563 104.62 278.564 105.04V128.415H299.252V105.04C299.252 104.62 299.353 104.206 299.547 103.833L299.985 102.969H277.83ZM298.069 105.04V127.232H279.746V105.04C279.746 104.741 279.71 104.443 279.639 104.153H298.176C298.105 104.443 298.069 104.741 298.069 105.04ZM303.838 102.969L304.276 103.833C304.47 104.206 304.571 104.62 304.571 105.04V128.415H325.26V105.04C325.26 104.62 325.361 104.206 325.555 103.833L325.993 102.969H303.838ZM324.077 105.04V127.232H305.754V105.04C305.754 104.741 305.718 104.443 305.647 104.153H324.184C324.113 104.443 324.077 104.741 324.077 105.04ZM329.846 102.969L330.284 103.833C330.478 104.206 330.579 104.62 330.579 105.04V128.415H351.268V105.04C351.268 104.62 351.369 104.206 351.563 103.833L352.001 102.969H329.846ZM350.085 105.04V127.232H331.762V105.04C331.762 104.741 331.726 104.443 331.655 104.153H350.192C350.121 104.443 350.085 104.741 350.085 105.04ZM355.854 102.969L356.292 103.833C356.486 104.206 356.587 104.62 356.587 105.04V128.415H377.275V105.04C377.276 104.62 377.377 104.206 377.571 103.833L378.008 102.969H355.854ZM376.093 105.04V127.232H357.769V105.04C357.77 104.741 357.734 104.443 357.663 104.153H376.2C376.129 104.443 376.093 104.741 376.093 105.04ZM381.862 102.969L382.3 103.833C382.494 104.206 382.595 104.62 382.595 105.04V128.415H403.283V105.04C403.284 104.62 403.385 104.206 403.579 103.833L404.016 102.969H381.862ZM402.101 105.04V127.232H383.777V105.04C383.778 104.741 383.742 104.443 383.671 104.153H402.208C402.137 104.443 402.101 104.741 402.101 105.04ZM173.799 102.969L174.236 103.833C174.43 104.206 174.532 104.62 174.532 105.04V128.415H195.22V105.04C195.22 104.62 195.322 104.206 195.516 103.833L195.953 102.969H173.799ZM194.038 105.04V127.232H175.714V105.04C175.714 104.741 175.679 104.443 175.608 104.153H194.144C194.073 104.443 194.037 104.741 194.038 105.04ZM199.807 102.969L200.244 103.833C200.438 104.206 200.54 104.62 200.54 105.04V128.415H221.228V105.04C221.228 104.62 221.33 104.206 221.523 103.833L221.961 102.969H199.807ZM220.046 105.04V127.232H201.722V105.04C201.722 104.741 201.687 104.443 201.615 104.153H220.152C220.081 104.443 220.045 104.741 220.046 105.04ZM225.815 102.969L226.252 103.833C226.446 104.206 226.547 104.62 226.548 105.04V128.415H247.236V105.04C247.236 104.62 247.337 104.206 247.531 103.833L247.969 102.969H225.815ZM246.054 105.04V127.232H227.73V105.04C227.73 104.741 227.694 104.443 227.623 104.153H246.16C246.089 104.443 246.053 104.741 246.054 105.04ZM251.823 102.969L252.26 103.833C252.454 104.206 252.555 104.62 252.556 105.04V128.415H273.244V105.04C273.244 104.62 273.345 104.206 273.539 103.833L273.977 102.969H251.823ZM272.062 105.04V127.232H253.738V105.04C253.738 104.741 253.702 104.443 253.631 104.153H272.168C272.097 104.443 272.061 104.741 272.062 105.04ZM277.83 102.969L278.268 103.833C278.462 104.206 278.563 104.62 278.564 105.04V128.415H299.252V105.04C299.252 104.62 299.353 104.206 299.547 103.833L299.985 102.969H277.83ZM298.069 105.04V127.232H279.746V105.04C279.746 104.741 279.71 104.443 279.639 104.153H298.176C298.105 104.443 298.069 104.741 298.069 105.04ZM303.838 102.969L304.276 103.833C304.47 104.206 304.571 104.62 304.571 105.04V128.415H325.26V105.04C325.26 104.62 325.361 104.206 325.555 103.833L325.993 102.969H303.838ZM324.077 105.04V127.232H305.754V105.04C305.754 104.741 305.718 104.443 305.647 104.153H324.184C324.113 104.443 324.077 104.741 324.077 105.04ZM329.846 102.969L330.284 103.833C330.478 104.206 330.579 104.62 330.579 105.04V128.415H351.268V105.04C351.268 104.62 351.369 104.206 351.563 103.833L352.001 102.969H329.846ZM350.085 105.04V127.232H331.762V105.04C331.762 104.741 331.726 104.443 331.655 104.153H350.192C350.121 104.443 350.085 104.741 350.085 105.04ZM355.854 102.969L356.292 103.833C356.486 104.206 356.587 104.62 356.587 105.04V128.415H377.275V105.04C377.276 104.62 377.377 104.206 377.571 103.833L378.008 102.969H355.854ZM376.093 105.04V127.232H357.769V105.04C357.77 104.741 357.734 104.443 357.663 104.153H376.2C376.129 104.443 376.093 104.741 376.093 105.04ZM381.862 102.969L382.3 103.833C382.494 104.206 382.595 104.62 382.595 105.04V128.415H403.283V105.04C403.284 104.62 403.385 104.206 403.579 103.833L404.016 102.969H381.862ZM402.101 105.04V127.232H383.777V105.04C383.778 104.741 383.742 104.443 383.671 104.153H402.208C402.137 104.443 402.101 104.741 402.101 105.04ZM173.799 102.969L174.236 103.833C174.43 104.206 174.532 104.62 174.532 105.04V128.415H195.22V105.04C195.22 104.62 195.322 104.206 195.516 103.833L195.953 102.969H173.799ZM194.038 105.04V127.232H175.714V105.04C175.714 104.741 175.679 104.443 175.608 104.153H194.144C194.073 104.443 194.037 104.741 194.038 105.04ZM199.807 102.969L200.244 103.833C200.438 104.206 200.54 104.62 200.54 105.04V128.415H221.228V105.04C221.228 104.62 221.33 104.206 221.523 103.833L221.961 102.969H199.807ZM220.046 105.04V127.232H201.722V105.04C201.722 104.741 201.687 104.443 201.615 104.153H220.152C220.081 104.443 220.045 104.741 220.046 105.04ZM225.815 102.969L226.252 103.833C226.446 104.206 226.547 104.62 226.548 105.04V128.415H247.236V105.04C247.236 104.62 247.337 104.206 247.531 103.833L247.969 102.969H225.815ZM246.054 105.04V127.232H227.73V105.04C227.73 104.741 227.694 104.443 227.623 104.153H246.16C246.089 104.443 246.053 104.741 246.054 105.04ZM251.823 102.969L252.26 103.833C252.454 104.206 252.555 104.62 252.556 105.04V128.415H273.244V105.04C273.244 104.62 273.345 104.206 273.539 103.833L273.977 102.969H251.823ZM272.062 105.04V127.232H253.738V105.04C253.738 104.741 253.702 104.443 253.631 104.153H272.168C272.097 104.443 272.061 104.741 272.062 105.04ZM277.83 102.969L278.268 103.833C278.462 104.206 278.563 104.62 278.564 105.04V128.415H299.252V105.04C299.252 104.62 299.353 104.206 299.547 103.833L299.985 102.969H277.83ZM298.069 105.04V127.232H279.746V105.04C279.746 104.741 279.71 104.443 279.639 104.153H298.176C298.105 104.443 298.069 104.741 298.069 105.04ZM303.838 102.969L304.276 103.833C304.47 104.206 304.571 104.62 304.571 105.04V128.415H325.26V105.04C325.26 104.62 325.361 104.206 325.555 103.833L325.993 102.969H303.838ZM324.077 105.04V127.232H305.754V105.04C305.754 104.741 305.718 104.443 305.647 104.153H324.184C324.113 104.443 324.077 104.741 324.077 105.04ZM329.846 102.969L330.284 103.833C330.478 104.206 330.579 104.62 330.579 105.04V128.415H351.268V105.04C351.268 104.62 351.369 104.206 351.563 103.833L352.001 102.969H329.846ZM350.085 105.04V127.232H331.762V105.04C331.762 104.741 331.726 104.443 331.655 104.153H350.192C350.121 104.443 350.085 104.741 350.085 105.04ZM355.854 102.969L356.292 103.833C356.486 104.206 356.587 104.62 356.587 105.04V128.415H377.275V105.04C377.276 104.62 377.377 104.206 377.571 103.833L378.008 102.969H355.854ZM376.093 105.04V127.232H357.769V105.04C357.77 104.741 357.734 104.443 357.663 104.153H376.2C376.129 104.443 376.093 104.741 376.093 105.04ZM381.862 102.969L382.3 103.833C382.494 104.206 382.595 104.62 382.595 105.04V128.415H403.283V105.04C403.284 104.62 403.385 104.206 403.579 103.833L404.016 102.969H381.862ZM402.101 105.04V127.232H383.777V105.04C383.778 104.741 383.742 104.443 383.671 104.153H402.208C402.137 104.443 402.101 104.741 402.101 105.04ZM173.799 102.969L174.236 103.833C174.43 104.206 174.532 104.62 174.532 105.04V128.415H195.22V105.04C195.22 104.62 195.322 104.206 195.516 103.833L195.953 102.969H173.799ZM194.038 105.04V127.232H175.714V105.04C175.714 104.741 175.679 104.443 175.608 104.153H194.144C194.073 104.443 194.037 104.741 194.038 105.04ZM199.807 102.969L200.244 103.833C200.438 104.206 200.54 104.62 200.54 105.04V128.415H221.228V105.04C221.228 104.62 221.33 104.206 221.523 103.833L221.961 102.969H199.807ZM220.046 105.04V127.232H201.722V105.04C201.722 104.741 201.687 104.443 201.615 104.153H220.152C220.081 104.443 220.045 104.741 220.046 105.04ZM225.815 102.969L226.252 103.833C226.446 104.206 226.547 104.62 226.548 105.04V128.415H247.236V105.04C247.236 104.62 247.337 104.206 247.531 103.833L247.969 102.969H225.815ZM246.054 105.04V127.232H227.73V105.04C227.73 104.741 227.694 104.443 227.623 104.153H246.16C246.089 104.443 246.053 104.741 246.054 105.04ZM251.823 102.969L252.26 103.833C252.454 104.206 252.555 104.62 252.556 105.04V128.415H273.244V105.04C273.244 104.62 273.345 104.206 273.539 103.833L273.977 102.969H251.823ZM272.062 105.04V127.232H253.738V105.04C253.738 104.741 253.702 104.443 253.631 104.153H272.168C272.097 104.443 272.061 104.741 272.062 105.04ZM277.83 102.969L278.268 103.833C278.462 104.206 278.563 104.62 278.564 105.04V128.415H299.252V105.04C299.252 104.62 299.353 104.206 299.547 103.833L299.985 102.969H277.83ZM298.069 105.04V127.232H279.746V105.04C279.746 104.741 279.71 104.443 279.639 104.153H298.176C298.105 104.443 298.069 104.741 298.069 105.04ZM303.838 102.969L304.276 103.833C304.47 104.206 304.571 104.62 304.571 105.04V128.415H325.26V105.04C325.26 104.62 325.361 104.206 325.555 103.833L325.993 102.969H303.838ZM324.077 105.04V127.232H305.754V105.04C305.754 104.741 305.718 104.443 305.647 104.153H324.184C324.113 104.443 324.077 104.741 324.077 105.04ZM329.846 102.969L330.284 103.833C330.478 104.206 330.579 104.62 330.579 105.04V128.415H351.268V105.04C351.268 104.62 351.369 104.206 351.563 103.833L352.001 102.969H329.846ZM350.085 105.04V127.232H331.762V105.04C331.762 104.741 331.726 104.443 331.655 104.153H350.192C350.121 104.443 350.085 104.741 350.085 105.04ZM355.854 102.969L356.292 103.833C356.486 104.206 356.587 104.62 356.587 105.04V128.415H377.275V105.04C377.276 104.62 377.377 104.206 377.571 103.833L378.008 102.969H355.854ZM376.093 105.04V127.232H357.769V105.04C357.77 104.741 357.734 104.443 357.663 104.153H376.2C376.129 104.443 376.093 104.741 376.093 105.04ZM381.862 102.969L382.3 103.833C382.494 104.206 382.595 104.62 382.595 105.04V128.415H403.283V105.04C403.284 104.62 403.385 104.206 403.579 103.833L404.016 102.969H381.862ZM402.101 105.04V127.232H383.777V105.04C383.778 104.741 383.742 104.443 383.671 104.153H402.208C402.137 104.443 402.101 104.741 402.101 105.04Z" fill="white"/>
<path d="M244.075 206.529H200.486C199.568 206.528 198.688 206.163 198.039 205.513C197.389 204.863 197.024 203.982 197.023 203.062V179.815C197.024 178.896 197.389 178.015 198.039 177.365C198.688 176.715 199.568 176.35 200.486 176.349H244.075C244.993 176.35 245.873 176.715 246.522 177.365C247.171 178.015 247.536 178.896 247.537 179.815V203.062C247.536 203.982 247.171 204.863 246.522 205.513C245.873 206.163 244.993 206.528 244.075 206.529Z" fill="#E13A34"/>
<path d="M310.406 206.529H266.818C265.9 206.528 265.019 206.163 264.37 205.513C263.721 204.863 263.356 203.982 263.355 203.062V179.815C263.356 178.896 263.721 178.015 264.37 177.365C265.019 176.715 265.9 176.35 266.818 176.349H310.406C311.325 176.35 312.205 176.715 312.854 177.365C313.503 178.015 313.868 178.896 313.869 179.815V203.062C313.868 203.982 313.503 204.863 312.854 205.513C312.205 206.163 311.325 206.528 310.406 206.529Z" fill="#E13A34"/>
<path d="M376.738 206.529H333.149C332.231 206.528 331.351 206.163 330.702 205.513C330.053 204.863 329.688 203.982 329.687 203.062V179.815C329.688 178.896 330.053 178.015 330.702 177.365C331.351 176.715 332.231 176.35 333.149 176.349H376.738C377.656 176.35 378.536 176.715 379.186 177.365C379.835 178.015 380.2 178.896 380.201 179.815V203.062C380.2 203.982 379.835 204.863 379.186 205.513C378.536 206.163 377.656 206.528 376.738 206.529Z" fill="#E13A34"/>
<path d="M244.075 284.052H200.486C199.568 284.051 198.688 283.686 198.039 283.036C197.389 282.386 197.024 281.505 197.023 280.585V257.338C197.024 256.419 197.389 255.538 198.039 254.888C198.688 254.238 199.568 253.873 200.486 253.872H244.075C244.993 253.873 245.873 254.238 246.522 254.888C247.171 255.538 247.536 256.419 247.537 257.338V280.585C247.536 281.505 247.171 282.386 246.522 283.036C245.873 283.686 244.993 284.051 244.075 284.052Z" fill="#E13A34"/>
<path d="M310.406 284.052H266.818C265.9 284.051 265.019 283.686 264.37 283.036C263.721 282.386 263.356 281.505 263.355 280.585V257.338C263.356 256.419 263.721 255.538 264.37 254.888C265.019 254.238 265.9 253.873 266.818 253.872H310.406C311.325 253.873 312.205 254.238 312.854 254.888C313.503 255.538 313.868 256.419 313.869 257.338V280.585C313.868 281.505 313.503 282.386 312.854 283.036C312.205 283.686 311.325 284.051 310.406 284.052Z" fill="#E13A34"/>
<path d="M376.738 284.052H333.149C332.231 284.051 331.351 283.686 330.702 283.036C330.053 282.386 329.688 281.505 329.687 280.585V257.338C329.688 256.419 330.053 255.538 330.702 254.888C331.351 254.238 332.231 253.873 333.149 253.872H376.738C377.656 253.873 378.536 254.238 379.186 254.888C379.835 255.538 380.2 256.419 380.201 257.338V280.585C380.2 281.505 379.835 282.386 379.186 283.036C378.536 283.686 377.656 284.051 376.738 284.052Z" fill="#E13A34"/>
<path d="M244.075 361.575H200.486C199.568 361.573 198.688 361.208 198.039 360.558C197.389 359.908 197.024 359.027 197.023 358.108V334.861C197.024 333.942 197.389 333.06 198.039 332.411C198.688 331.761 199.568 331.395 200.486 331.394H244.075C244.993 331.395 245.873 331.761 246.522 332.411C247.171 333.06 247.536 333.942 247.537 334.861V358.108C247.536 359.027 247.171 359.908 246.522 360.558C245.873 361.208 244.993 361.573 244.075 361.575Z" fill="#E13A34"/>
<path d="M310.406 361.575H266.818C265.9 361.573 265.019 361.208 264.37 360.558C263.721 359.908 263.356 359.027 263.355 358.108V334.861C263.356 333.942 263.721 333.06 264.37 332.411C265.019 331.761 265.9 331.395 266.818 331.394H310.406C311.325 331.395 312.205 331.761 312.854 332.411C313.503 333.06 313.868 333.942 313.869 334.861V358.108C313.868 359.027 313.503 359.908 312.854 360.558C312.205 361.208 311.325 361.573 310.406 361.575Z" fill="#E13A34"/>
<path d="M376.738 361.575H333.149C332.231 361.573 331.351 361.208 330.702 360.558C330.053 359.908 329.688 359.027 329.687 358.108V334.861C329.688 333.942 330.053 333.06 330.702 332.411C331.351 331.761 332.231 331.395 333.149 331.394H376.738C377.656 331.395 378.536 331.761 379.186 332.411C379.835 333.06 380.2 333.942 380.201 334.861V358.108C380.2 359.027 379.835 359.908 379.186 360.558C378.536 361.208 377.656 361.573 376.738 361.575Z" fill="#E13A34"/>
<path d="M237.018 209.512H186.523C185.303 209.511 184.133 209.025 183.27 208.161C182.407 207.297 181.922 206.126 181.92 204.905V177.974C181.922 176.752 182.407 175.581 183.27 174.717C184.133 173.854 185.303 173.368 186.523 173.366H237.018C238.238 173.368 239.408 173.854 240.271 174.717C241.134 175.581 241.619 176.752 241.62 177.974V204.905C241.619 206.126 241.134 207.297 240.271 208.161C239.408 209.025 238.238 209.511 237.018 209.512ZM186.523 174.55C185.616 174.551 184.747 174.912 184.105 175.554C183.464 176.196 183.104 177.066 183.103 177.974V204.905C183.104 205.812 183.464 206.683 184.105 207.325C184.747 207.967 185.616 208.328 186.523 208.329H237.018C237.925 208.328 238.794 207.967 239.435 207.325C240.077 206.683 240.437 205.812 240.438 204.905V177.974C240.437 177.066 240.077 176.196 239.435 175.554C238.794 174.912 237.925 174.551 237.018 174.55H186.523Z" fill="white"/>
<path d="M313.86 209.512H263.364C262.144 209.511 260.974 209.025 260.112 208.161C259.249 207.297 258.763 206.126 258.762 204.905V177.974C258.763 176.752 259.249 175.581 260.112 174.717C260.974 173.854 262.144 173.368 263.364 173.366H313.86C315.08 173.368 316.25 173.854 317.113 174.717C317.975 175.581 318.461 176.752 318.462 177.974V204.905C318.461 206.126 317.975 207.297 317.113 208.161C316.25 209.025 315.08 209.511 313.86 209.512ZM263.364 174.55C262.458 174.551 261.588 174.912 260.947 175.554C260.306 176.196 259.945 177.066 259.944 177.974V204.905C259.945 205.812 260.306 206.683 260.947 207.325C261.588 207.967 262.458 208.328 263.364 208.329H313.86C314.766 208.328 315.636 207.967 316.277 207.325C316.918 206.683 317.279 205.812 317.28 204.905V177.974C317.279 177.066 316.918 176.196 316.277 175.554C315.636 174.912 314.766 174.551 313.86 174.55H263.364Z" fill="white"/>
<path d="M390.701 209.512H340.206C338.986 209.511 337.816 209.025 336.953 208.161C336.09 207.297 335.605 206.126 335.604 204.905V177.974C335.605 176.752 336.09 175.581 336.953 174.717C337.816 173.854 338.986 173.368 340.206 173.366H390.701C391.921 173.368 393.091 173.854 393.954 174.717C394.817 175.581 395.302 176.752 395.304 177.974V204.905C395.302 206.126 394.817 207.297 393.954 208.161C393.091 209.025 391.921 209.511 390.701 209.512ZM340.206 174.55C339.299 174.551 338.43 174.912 337.789 175.554C337.147 176.196 336.787 177.066 336.786 177.974V204.905C336.787 205.812 337.147 206.683 337.789 207.325C338.43 207.967 339.299 208.328 340.206 208.329H390.701C391.608 208.328 392.477 207.967 393.119 207.325C393.76 206.683 394.12 205.812 394.121 204.905V177.974C394.12 177.066 393.76 176.196 393.119 175.554C392.477 174.912 391.608 174.551 390.701 174.55H340.206Z" fill="white"/>
<path d="M237.018 287.035H186.523C185.303 287.033 184.133 286.548 183.27 285.684C182.407 284.82 181.922 283.649 181.92 282.427V255.497C181.922 254.275 182.407 253.104 183.27 252.24C184.133 251.376 185.303 250.89 186.523 250.889H237.018C238.238 250.89 239.408 251.376 240.271 252.24C241.134 253.104 241.619 254.275 241.62 255.497V282.427C241.619 283.649 241.134 284.82 240.271 285.684C239.408 286.548 238.238 287.033 237.018 287.035ZM186.523 252.072C185.616 252.073 184.747 252.434 184.105 253.076C183.464 253.718 183.104 254.589 183.103 255.497V282.427C183.104 283.335 183.464 284.205 184.105 284.847C184.747 285.489 185.616 285.85 186.523 285.851H237.018C237.925 285.85 238.794 285.489 239.435 284.847C240.077 284.205 240.437 283.335 240.438 282.427V255.497C240.437 254.589 240.077 253.718 239.435 253.076C238.794 252.434 237.925 252.073 237.018 252.072H186.523Z" fill="white"/>
<path d="M313.86 287.035H263.364C262.144 287.033 260.974 286.548 260.112 285.684C259.249 284.82 258.763 283.649 258.762 282.427V255.497C258.763 254.275 259.249 253.104 260.112 252.24C260.974 251.376 262.144 250.89 263.364 250.889H313.86C315.08 250.89 316.25 251.376 317.113 252.24C317.975 253.104 318.461 254.275 318.462 255.497V282.427C318.461 283.649 317.975 284.82 317.113 285.684C316.25 286.548 315.08 287.033 313.86 287.035ZM263.364 252.072C262.458 252.073 261.588 252.434 260.947 253.076C260.306 253.718 259.945 254.589 259.944 255.497V282.427C259.945 283.335 260.306 284.205 260.947 284.847C261.588 285.489 262.458 285.85 263.364 285.851H313.86C314.766 285.85 315.636 285.489 316.277 284.847C316.918 284.205 317.279 283.335 317.28 282.427V255.497C317.279 254.589 316.918 253.718 316.277 253.076C315.636 252.434 314.766 252.073 313.86 252.072H263.364Z" fill="white"/>
<path d="M390.701 287.035H340.206C338.986 287.033 337.816 286.548 336.953 285.684C336.09 284.82 335.605 283.649 335.604 282.427V255.497C335.605 254.275 336.09 253.104 336.953 252.24C337.816 251.376 338.986 250.89 340.206 250.889H390.701C391.921 250.89 393.091 251.376 393.954 252.24C394.817 253.104 395.302 254.275 395.304 255.497V282.427C395.302 283.649 394.817 284.82 393.954 285.684C393.091 286.548 391.921 287.033 390.701 287.035ZM340.206 252.072C339.299 252.073 338.43 252.434 337.789 253.076C337.147 253.718 336.787 254.589 336.786 255.497V282.427C336.787 283.335 337.147 284.205 337.789 284.847C338.43 285.489 339.299 285.85 340.206 285.851H390.701C391.608 285.85 392.477 285.489 393.119 284.847C393.76 284.205 394.12 283.335 394.121 282.427V255.497C394.12 254.589 393.76 253.718 393.119 253.076C392.477 252.434 391.608 252.073 390.701 252.072H340.206Z" fill="white"/>
<path d="M237.018 364.557H186.523C185.303 364.556 184.133 364.07 183.27 363.206C182.407 362.342 181.922 361.171 181.92 359.949V333.019C181.922 331.797 182.407 330.626 183.27 329.762C184.133 328.898 185.303 328.413 186.523 328.411H237.018C238.238 328.413 239.408 328.898 240.271 329.762C241.134 330.626 241.619 331.797 241.62 333.019V359.949C241.619 361.171 241.134 362.342 240.271 363.206C239.408 364.07 238.238 364.556 237.018 364.557ZM186.523 329.595C185.616 329.596 184.747 329.957 184.105 330.599C183.464 331.241 183.104 332.111 183.103 333.019V359.949C183.104 360.857 183.464 361.728 184.105 362.37C184.747 363.012 185.616 363.373 186.523 363.374H237.018C237.925 363.373 238.794 363.012 239.435 362.37C240.077 361.728 240.437 360.857 240.438 359.949V333.019C240.437 332.111 240.077 331.241 239.435 330.599C238.794 329.957 237.925 329.596 237.018 329.595H186.523Z" fill="white"/>
<path d="M313.86 364.557H263.364C262.144 364.556 260.974 364.07 260.112 363.206C259.249 362.342 258.763 361.171 258.762 359.949V333.019C258.763 331.797 259.249 330.626 260.112 329.762C260.974 328.898 262.144 328.413 263.364 328.411H313.86C315.08 328.413 316.25 328.898 317.113 329.762C317.975 330.626 318.461 331.797 318.462 333.019V359.949C318.461 361.171 317.975 362.342 317.113 363.206C316.25 364.07 315.08 364.556 313.86 364.557ZM263.364 329.595C262.458 329.596 261.588 329.957 260.947 330.599C260.306 331.241 259.945 332.111 259.944 333.019V359.949C259.945 360.857 260.306 361.728 260.947 362.37C261.588 363.012 262.458 363.373 263.364 363.374H313.86C314.766 363.373 315.636 363.012 316.277 362.37C316.918 361.728 317.279 360.857 317.28 359.949V333.019C317.279 332.111 316.918 331.241 316.277 330.599C315.636 329.957 314.766 329.596 313.86 329.595H263.364Z" fill="white"/>
<path d="M390.701 364.557H340.206C338.986 364.556 337.816 364.07 336.953 363.206C336.09 362.342 335.605 361.171 335.604 359.949V333.019C335.605 331.797 336.09 330.626 336.953 329.762C337.816 328.898 338.986 328.413 340.206 328.411H390.701C391.921 328.413 393.091 328.898 393.954 329.762C394.817 330.626 395.302 331.797 395.304 333.019V359.949C395.302 361.171 394.817 362.342 393.954 363.206C393.091 364.07 391.921 364.556 390.701 364.557ZM340.206 329.595C339.299 329.596 338.43 329.957 337.789 330.599C337.147 331.241 336.787 332.111 336.786 333.019V359.949C336.787 360.857 337.147 361.728 337.789 362.37C338.43 363.012 339.299 363.373 340.206 363.374H390.701C391.608 363.373 392.477 363.012 393.119 362.37C393.76 361.728 394.12 360.857 394.121 359.949V333.019C394.12 332.111 393.76 331.241 393.119 330.599C392.477 329.957 391.608 329.596 390.701 329.595H340.206Z" fill="white"/>
<path d="M596.409 455.962H0.591089C0.434323 455.962 0.283976 455.9 0.173126 455.789C0.0622748 455.678 0 455.528 0 455.371C0 455.214 0.0622748 455.063 0.173126 454.952C0.283976 454.841 0.434323 454.779 0.591089 454.779H596.409C596.566 454.779 596.716 454.841 596.827 454.952C596.938 455.063 597 455.214 597 455.371C597 455.528 596.938 455.678 596.827 455.789C596.716 455.9 596.566 455.962 596.409 455.962Z" fill="white"/>
<path d="M318.462 398.685C318.478 397.334 317.958 396.033 317.016 395.066C316.074 394.099 314.787 393.547 313.438 393.53H288.612V454.779H318.462V398.685Z" fill="white"/>
<path d="M289.203 454.187H258.171V398.856C258.173 397.366 258.765 395.937 259.818 394.883C260.87 393.829 262.298 393.236 263.786 393.234H289.203V454.187ZM259.353 453.004H288.021V394.418H263.786C262.611 394.419 261.484 394.887 260.653 395.719C259.822 396.551 259.354 397.68 259.353 398.856V453.004Z" fill="white"/>
<path d="M262.013 427.853C262.992 427.853 263.786 427.059 263.786 426.078C263.786 425.098 262.992 424.303 262.013 424.303C261.034 424.303 260.24 425.098 260.24 426.078C260.24 427.059 261.034 427.853 262.013 427.853Z" fill="white"/>
</svg>
