<svg width="59" height="59" viewBox="0 0 59 59" fill="none" xmlns="http://www.w3.org/2000/svg">
<path d="M24.9439 33.8267C28.3651 37.2973 32.5046 39.9768 37.0717 41.677L43.2503 36.7603C43.4335 36.6342 43.6506 36.5666 43.8731 36.5666C44.0955 36.5666 44.3127 36.6342 44.4958 36.7603L55.9681 44.1517C56.4036 44.4136 56.7723 44.7731 57.045 45.2019C57.3177 45.6307 57.487 46.1171 57.5394 46.6226C57.5919 47.128 57.5261 47.6388 57.3472 48.1144C57.1684 48.5901 56.8814 49.0177 56.5089 49.3634L51.1333 54.6734C50.3635 55.4341 49.4173 55.9923 48.3793 56.2983C47.3412 56.6043 46.2435 56.6485 45.1842 56.427C34.617 54.2445 24.8769 49.1331 17.0772 41.677C9.45064 34.1467 4.17307 24.5651 1.88473 14.0945C1.65868 13.0516 1.70586 11.9679 2.02171 10.9486C2.33755 9.92929 2.91136 9.00883 3.68751 8.27645L9.25973 2.90089C9.60455 2.54655 10.0251 2.2748 10.4898 2.106C10.9545 1.9372 11.4514 1.87572 11.9433 1.92616C12.4351 1.97661 12.9092 2.13767 13.33 2.3973C13.7508 2.65692 14.1074 3.00837 14.3731 3.42534L22.0103 14.7501C22.142 14.9279 22.2131 15.1433 22.2131 15.3646C22.2131 15.5859 22.142 15.8014 22.0103 15.9792L16.9789 22.0267C18.7253 26.5024 21.4461 30.5333 24.9439 33.8267Z" fill="#E13A34"/>
</svg>
